HIERARCHY
ROOT Hips
{
	OFFSET 0.000000 89.005402 0.000000
	CHANNELS 6 Xposition Yposition Zposition Xrotation Yrotation Zrotation
	JOINT Spine
	{
		OFFSET 0.116900 10.681000 0.373400
		CHANNELS 3 Xrotation Yrotation Zrotation
		JOINT Spine1
		{
			OFFSET 0.000000 13.840401 0.053500
			CHANNELS 3 Xrotation Yrotation Zrotation
			JOINT Spine2
			{
				OFFSET 0.000000 14.712700 -0.366200
				CHANNELS 3 Xrotation Yrotation Zrotation
				JOINT Neck
				{
					OFFSET 0.000000 35.415497 -3.314200
					CHANNELS 3 Xrotation Yrotation Zrotation
					JOINT Head
					{
						OFFSET 0.000000 16.899200 1.218300
						CHANNELS 3 Xrotation Yrotation Zrotation
						JOINT HeadTop_End
						{
							OFFSET 0.000000 22.206207 2.192500
							CHANNELS 3 Xrotation Yrotation Zrotation
							End Site
							{
								OFFSET 0.000000 22.314178 0.000000
							}
						}
					}
				}
				JOINT LeftShoulder
				{
					OFFSET 12.896400 26.716293 -4.548400
					CHANNELS 3 Xrotation Yrotation Zrotation
					JOINT LeftArm
					{
						OFFSET 19.027000 -4.857010 -1.718400
						CHANNELS 3 Xrotation Yrotation Zrotation
						JOINT LeftForeArm
						{
							OFFSET 24.179897 0.000000 0.000000
							CHANNELS 3 Xrotation Yrotation Zrotation
							JOINT LeftHand
							{
								OFFSET 27.156403 0.000000 0.000000
								CHANNELS 3 Xrotation Yrotation Zrotation
								JOINT LeftHandIndex1
								{
									OFFSET 16.441200 0.000000 0.000000
									CHANNELS 3 Xrotation Yrotation Zrotation
									JOINT LeftHandIndex2
									{
										OFFSET 4.821899 0.000000 0.000000
										CHANNELS 3 Xrotation Yrotation Zrotation
										JOINT LeftHandIndex3
										{
											OFFSET 6.386497 0.000000 0.000000
											CHANNELS 3 Xrotation Yrotation Zrotation
											JOINT LeftHandIndex4
											{
												OFFSET 5.188988 0.000000 0.000000
												CHANNELS 3 Xrotation Yrotation Zrotation
												End Site
												{
													OFFSET -0.178703 5.185913 0.000177
												}
											}
										}
									}
								}
								JOINT LeftHandThumb1
								{
									OFFSET 6.534897 -5.032593 5.900300
									CHANNELS 3 Xrotation Yrotation Zrotation
									JOINT LeftHandThumb2
									{
										OFFSET 3.818176 -2.204422 2.204423
										CHANNELS 3 Xrotation Yrotation Zrotation
										JOINT LeftHandThumb3
										{
											OFFSET 3.252098 -1.877594 1.877601
											CHANNELS 3 Xrotation Yrotation Zrotation
											JOINT LeftHandThumb4
											{
												OFFSET 5.251778 -3.032120 3.032117
												CHANNELS 3 Xrotation Yrotation Zrotation
												End Site
												{
													OFFSET 0.000023 6.780014 0.000000
												}
											}
										}
									}
								}
							}
						}
					}
				}
				JOINT RightShoulder
				{
					OFFSET -12.896300 26.716293 -4.548400
					CHANNELS 3 Xrotation Yrotation Zrotation
					JOINT RightArm
					{
						OFFSET -19.027000 -4.857010 -1.718400
						CHANNELS 3 Xrotation Yrotation Zrotation
						JOINT RightForeArm
						{
							OFFSET -24.179897 0.000000 0.000000
							CHANNELS 3 Xrotation Yrotation Zrotation
							JOINT RightHand
							{
								OFFSET -27.156403 0.000000 0.000000
								CHANNELS 3 Xrotation Yrotation Zrotation
								JOINT RightHandThumb1
								{
									OFFSET -6.591202 -4.852203 5.988100
									CHANNELS 3 Xrotation Yrotation Zrotation
									JOINT RightHandThumb2
									{
										OFFSET -3.818176 -2.204422 2.204423
										CHANNELS 3 Xrotation Yrotation Zrotation
										JOINT RightHandThumb3
										{
											OFFSET -3.252098 -1.877594 1.877601
											CHANNELS 3 Xrotation Yrotation Zrotation
											JOINT RightHandThumb4
											{
												OFFSET -5.251778 -3.032120 3.032117
												CHANNELS 3 Xrotation Yrotation Zrotation
												End Site
												{
													OFFSET -0.000023 6.780014 0.000000
												}
											}
										}
									}
								}
								JOINT RightHandIndex1
								{
									OFFSET -16.029404 0.000000 0.000000
									CHANNELS 3 Xrotation Yrotation Zrotation
									JOINT RightHandIndex2
									{
										OFFSET -5.213303 0.000000 0.000000
										CHANNELS 3 Xrotation Yrotation Zrotation
										JOINT RightHandIndex3
										{
											OFFSET -6.386528 0.000000 0.000000
											CHANNELS 3 Xrotation Yrotation Zrotation
											JOINT RightHandIndex4
											{
												OFFSET -5.189026 0.000000 0.000000
												CHANNELS 3 Xrotation Yrotation Zrotation
												End Site
												{
													OFFSET 0.236702 5.183624 0.001972
												}
											}
										}
									}
								}
							}
						}
					}
				}
			}
		}
	}
	JOINT LeftUpLeg
	{
		OFFSET 14.073000 -7.904099 -1.463000
		CHANNELS 3 Xrotation Yrotation Zrotation
		JOINT LeftLeg
		{
			OFFSET -0.109806 -34.073280 4.093200
			CHANNELS 3 Xrotation Yrotation Zrotation
			JOINT LeftFoot
			{
				OFFSET 0.109806 -29.899420 -6.319000
				CHANNELS 3 Xrotation Yrotation Zrotation
				JOINT LeftToeBase
				{
					OFFSET 1.551100 -14.988700 20.535801
					CHANNELS 3 Xrotation Yrotation Zrotation
					JOINT LeftToe_End
					{
						OFFSET 0.221200 0.570800 13.248301
						CHANNELS 3 Xrotation Yrotation Zrotation
						End Site
						{
							OFFSET 0.000000 13.262435 0.000000
						}
					}
				}
			}
		}
	}
	JOINT RightUpLeg
	{
		OFFSET -13.839300 -7.904099 -1.463000
		CHANNELS 3 Xrotation Yrotation Zrotation
		JOINT RightLeg
		{
			OFFSET 0.109694 -34.073219 4.093300
			CHANNELS 3 Xrotation Yrotation Zrotation
			JOINT RightFoot
			{
				OFFSET -0.109694 -29.899384 -6.319200
				CHANNELS 3 Xrotation Yrotation Zrotation
				JOINT RightToeBase
				{
					OFFSET -1.551100 -14.988700 20.535801
					CHANNELS 3 Xrotation Yrotation Zrotation
					JOINT RightToe_End
					{
						OFFSET -0.221200 0.570900 13.248299
						CHANNELS 3 Xrotation Yrotation Zrotation
						End Site
						{
							OFFSET 0.000000 13.262440 0.000000
						}
					}
				}
			}
		}
	}
}
MOTION
Frames: 4
Frame Time: 0.033333
-0.085464 83.791000 1.553057 -2.793573 -0.944230 2.520909 -3.699921 1.987501 2.739571 1.825086 0.204639 -3.563413 1.839736 0.222339 -3.555416 0.005325 -3.044289 -0.019017 5.669665 4.099743 0.112406 0.000000 0.000000 -0.000000 3.264881 -13.066455 -8.920288 12.299515 32.230795 -77.872250 0.000006 -37.449500 0.000015 11.318195 5.111736 -3.307938 -0.982646 -2.594473 -15.812755 0.762402 3.154217 -27.170303 0.348192 2.165899 -18.263663 0.000001 0.000000 0.000001 -6.694188 7.651327 20.042546 11.568884 23.611298 -7.394423 5.302240 8.249623 -3.166193 0.000001 0.000000 0.000000 1.454487 14.110505 8.503206 54.678328 18.111659 70.211817 -0.000115 75.258774 0.000088 51.346340 35.160612 -70.815886 1.788483 4.679407 9.698150 4.637180 -8.634090 -0.225412 -7.859338 19.055190 -1.516529 -0.000001 0.000001 -0.000000 8.183356 12.621746 -38.427925 0.272877 -1.932497 16.073511 0.241744 -1.821024 15.122727 -0.000001 -0.000000 -0.000000 -1.449238 -0.064631 -18.188859 17.060978 10.406554 4.453279 -17.420394 15.210836 9.074316 -7.789673 0.000003 -0.000004 -0.000001 -0.000001 -0.000000 -24.208624 -4.538565 2.071160 26.877052 -10.339415 -3.315319 -2.076122 -16.156119 -3.163999 -0.243002 -0.000007 -0.000001 -0.000000 0.000002 0.000000 
-0.074706 83.776535 1.608726 -2.793573 -0.977749 2.569686 -3.822155 2.022506 2.780439 1.862637 0.208559 -3.596379 1.877539 0.226432 -3.587913 0.016665 -3.049434 0.004049 5.628731 4.096247 0.149509 0.000000 -0.000000 0.000000 3.318908 -13.200823 -8.955620 12.731991 32.102914 -77.867517 0.000006 -37.603593 0.000011 10.795355 5.116862 -3.465662 -0.987181 -2.602663 -15.840549 0.762413 3.154235 -27.170504 0.348198 2.165910 -18.263808 0.000001 0.000001 -0.000001 -6.694210 7.651550 20.054301 11.567904 23.609030 -7.393723 5.302704 8.250670 -3.166441 -0.000001 0.000001 0.000000 1.454903 14.165858 8.533176 54.818699 17.557862 70.062359 -0.000032 75.912164 0.000022 50.633777 35.802964 -69.087172 1.823105 4.570004 9.855964 4.626441 -8.603855 -0.227160 -8.052928 19.681649 -1.476574 -0.000003 0.000002 0.000001 8.248162 12.701445 -38.429708 0.251182 -1.855545 15.416447 0.227071 -1.765861 14.653800 0.000002 -0.000002 0.000001 -1.373709 -0.110927 -18.257031 17.004883 10.406964 4.438758 -17.453136 15.203738 9.101136 -7.850186 0.000001 -0.000003 -0.000001 0.000003 0.000000 -24.248292 -4.521707 2.032833 27.039599 -10.335536 -3.361528 -2.186210 -16.191027 -3.104013 -0.200199 0.000000 0.000003 0.000000 0.000000 0.000000 
-0.064060 83.763260 1.670542 -2.803823 -1.015923 2.604510 -3.900957 2.045432 2.835123 1.891311 0.210022 -3.645639 1.906556 0.228302 -3.636892 0.038130 -3.053806 0.015161 5.629349 4.066671 0.203783 0.000000 0.000000 -0.000000 3.416115 -13.470082 -9.028231 12.873670 31.965419 -77.670473 -0.000002 -37.746453 -0.000009 10.100555 5.117249 -3.755509 -0.990947 -2.597985 -15.901304 0.762390 3.154199 -27.170119 0.348194 2.165901 -18.263719 -0.000001 0.000000 -0.000000 -6.702862 7.624731 20.051197 11.569184 23.611735 -7.394508 5.305806 8.257754 -3.168155 -0.000000 -0.000002 -0.000001 1.454275 14.212304 8.572595 54.983054 17.199316 69.709013 -0.000005 76.574460 0.000010 49.729248 36.312124 -67.404630 1.841568 4.489923 10.047309 4.618232 -8.582335 -0.228846 -8.184314 20.137039 -1.446366 0.000001 0.000000 0.000002 8.293538 12.756872 -38.432252 0.236320 -1.800782 14.950442 0.217379 -1.728414 14.336255 0.000003 -0.000001 -0.000000 -1.263806 -0.186210 -18.340694 16.916079 10.406970 4.432993 -17.490701 15.207056 9.149208 -8.068644 -0.000003 -0.000002 -0.000001 -0.000002 0.000000 -24.259295 -4.512569 2.004593 27.201181 -10.331157 -3.421674 -2.309873 -16.283362 -3.025216 -0.197042 0.000005 -0.000000 0.000000 0.000000 0.000000 
-0.051005 83.744354 1.737309 -2.826404 -1.050618 2.621420 -3.950871 2.064404 2.917804 1.926577 0.210516 -3.704184 1.942271 0.229140 -3.695209 0.062165 -3.058734 0.008082 5.646988 4.011683 0.243754 -0.000000 0.000000 -0.000000 3.558743 -13.857087 -9.135486 12.812882 31.760830 -77.301984 0.000001 -37.857143 -0.000002 9.229764 5.115977 -4.051489 -0.987594 -2.590681 -15.884954 0.762288 3.154005 -27.168343 0.348202 2.165908 -18.263757 0.000002 -0.000001 -0.000001 -6.714792 7.584647 20.021453 11.577448 23.629640 -7.399866 5.313873 8.276166 -3.172614 0.000001 -0.000001 -0.000001 1.453769 14.272314 8.633541 55.165741 16.872085 69.298662 -0.000044 77.239030 0.000040 48.802856 36.763620 -65.786825 1.842109 4.436444 10.268073 4.613821 -8.570587 -0.229789 -8.253276 20.412312 -1.427862 -0.000000 0.000003 0.000002 8.316479 12.785181 -38.432511 0.227990 -1.769374 14.683723 0.212547 -1.709421 14.175117 0.000000 0.000003 0.000001 -1.103270 -0.223425 -18.410746 16.826863 10.411480 4.380447 -17.598978 15.314922 9.249852 -8.231688 -0.000005 -0.000002 0.000000 0.000000 0.000000 -24.257861 -4.489543 1.998083 27.374451 -10.315834 -3.474128 -2.440608 -16.380190 -2.948331 -0.201025 0.000000 0.000000 -0.000000 -0.000003 -0.000000 
